HIERARCHY
ROOT pelvis
{
  OFFSET 0 100 0
  CHANNELS 6 Xposition Yposition Zposition Zrotation Xrotation Yrotation
  JOINT pelvis_right_femur
  {
    OFFSET -10.78128 -3.44521 -0.5502486
    CHANNELS 3 Zrotation Xrotation Yrotation
    JOINT right_femur_tibia
    {
      OFFSET -0.8047443 -44.0398 -0.1307829
      CHANNELS 3 Zrotation Xrotation Yrotation
      JOINT right_tibia_foot
      {
        OFFSET 3.006224 -47.83518 -5
        CHANNELS 3 Zrotation Xrotation Yrotation
        End Site
        {
          OFFSET 0 -5 15
        }
      }
    }
  }
  JOINT pelvis_left_femur
  {
    OFFSET 10.78128 -3.44521 -0.5502486
    CHANNELS 3 Zrotation Xrotation Yrotation
    JOINT left_femur_tibia
    {
      OFFSET 0.8047443 -44.0398 -0.1307829
      CHANNELS 3 Zrotation Xrotation Yrotation
      JOINT left_tibia_foot
      {
        OFFSET -4.370144 -48.10324 -4.275266
        CHANNELS 3 Zrotation Xrotation Yrotation
        End Site
        {
          OFFSET 0 -5 15
        }
      }
    }
  }
  JOINT pelvis_spine1
  {
    OFFSET 0 6.468898 -3.129235
    CHANNELS 3 Zrotation Xrotation Yrotation
    JOINT spine1
    {
      OFFSET 0 23.15396 4.99043
      CHANNELS 3 Zrotation Xrotation Yrotation
      JOINT spine2
      {
        OFFSET 0 20.79997 -5.064912
        CHANNELS 3 Zrotation Xrotation Yrotation
        JOINT neck
        {
          OFFSET 0 14.38658 9.616178
          CHANNELS 3 Zrotation Xrotation Yrotation
          End Site
          {
            OFFSET 0 20 0
          }
        }
      }
      JOINT right_manubrium
      {
        OFFSET -5.722621 16.35077 3.967754
        CHANNELS 3 Zrotation Xrotation Yrotation
        JOINT right_clavicle
        {
          OFFSET -13.16364 1.694482 -4.693211
          CHANNELS 3 Zrotation Xrotation Yrotation
          JOINT right_humerus
          {
            OFFSET -28.5034 -0.3100689 -2.792744
            CHANNELS 3 Zrotation Xrotation Yrotation
            JOINT right_radius
            {
              OFFSET -25.15693 0.02248979 -1.271978
              CHANNELS 3 Zrotation Xrotation Yrotation
              End Site
              {
                OFFSET -15 0 0
              }
            }
          }
        }
      }
      JOINT left_manubrium
      {
        OFFSET 5.722621 16.35077 3.967754
        CHANNELS 3 Zrotation Xrotation Yrotation
        JOINT left_clavicle
        {
          OFFSET 13.16364 1.694482 -4.693211
          CHANNELS 3 Zrotation Xrotation Yrotation
          JOINT left_humerus
          {
            OFFSET 29.39168 -1.063119 -2.237045
            CHANNELS 3 Zrotation Xrotation Yrotation
            JOINT left_radius
            {
              OFFSET 24.59957 -0.9528479 0.9047498
              CHANNELS 3 Zrotation Xrotation Yrotation
              End Site
              {
                OFFSET 15 -0 -0
              }
            }
          }
        }
      }
    }
  }
}
MOTION
Frames: 9
Frame Time: 0.0416666666667
-1514.771 29.212 2517.065 -1.884787 -10.97619 -12.53816 4.977149 1.925379 6.899051 -0 19.76034 -0 0.9100675 -9.001966 -6.67678 -1.603177 -4.94366 -5.991552 -0 57.01373 -0 -10.83019 -6.800966 18.1989 0.08892593 1.66858 6.036301 -0.3054951 10.27084 -3.760301 3.578946 23.78348 4.358817 1.416708 -14.26253 7.958408 1.92172 -15.50291 11.03417 86.50335 22.40723 -14.44594 -0 0 13.59987 -22.17828 14.65606 9.387735 4.470378 -17.39213 -4.068729 -89.11597 24.13545 14.37422 0 0 -15.66299 -2.369916 8.553125 14.89883
-1516.112 29.40311 2523.092 -2.023043 -11.64058 -13.41278 4.486246 6.446809 7.143986 -0 21.98426 -0 1.270024 -11.69925 -6.420134 -1.16154 -8.962363 -5.656463 -0 50.10971 -0 -10.5967 -7.699707 19.2655 -0.04323382 1.941489 6.394501 -0.7693852 9.557683 -2.9031 3.941624 24.15753 3.559229 0.7541866 -13.63477 7.913461 0.7444579 -16.50865 10.63258 85.64426 19.62017 -11.44088 -0 0 16.32587 -21.69544 12.85798 9.624817 4.378559 -15.87373 -3.819748 -90.62245 25.05006 16.31534 0 0 -12.78945 -3.6715 8.518506 16.06627
-1517.347 29.3606 2529.199 -2.107955 -11.7821 -14.13509 3.865374 9.973438 7.343768 -0 25.12975 -0 1.708038 -13.6462 -6.239316 -1.037237 -11.73199 -5.695738 -0 42.2195 -0 -10.0371 -8.564329 20.04913 -0.2299229 1.963048 6.59492 -1.06974 8.817885 -2.301335 4.186707 24.35913 2.940239 0.1072378 -13.47953 7.965396 -0.3439394 -17.45295 10.18031 85.25204 17.2534 -9.047603 -0 0 18.6086 -20.99779 11.00065 9.975433 4.201185 -14.43717 -3.537326 -92.00192 25.9897 18.31584 0 0 -10.19544 -4.8421 8.252865 17.32559
-1518.476 29.27995 2535.459 -2.098445 -11.52152 -14.6388 3.143445 12.14942 7.456425 -0 29.52106 -0 2.142964 -14.23016 -6.148254 -1.335313 -13.03032 -6.151939 -0 35.2364 -0 -9.288682 -9.206987 20.41527 -0.4808882 1.792685 6.648594 -1.236506 8.209711 -1.964086 4.304675 24.40947 2.598186 -0.4024895 -13.76762 8.117544 -1.126389 -18.15065 9.767958 85.24075 15.7647 -7.481252 -0 0 20.08944 -20.30691 9.454257 10.39811 3.909073 -13.26648 -3.282653 -93.03741 26.82004 20.10789 0 0 -8.167598 -5.684678 7.864753 18.48137
-1519.499 29.38173 2541.865 -1.947651 -11.01941 -14.84312 2.379824 12.63564 7.405346 -0 35.25559 -0 2.458438 -13.06644 -6.172656 -2.044881 -12.81568 -6.905054 -0 30.26033 -0 -8.398756 -9.66481 20.28725 -0.838733 1.515546 6.555972 -1.304108 7.888838 -1.916145 4.266635 24.33148 2.591087 -0.6662854 -14.38496 8.315741 -1.396104 -18.49084 9.507423 85.44688 15.51888 -6.872262 -0 0 20.55406 -19.85538 8.557164 10.83199 3.532838 -12.58566 -3.12589 -93.46035 27.39421 21.3448 0 0 -7.022291 -6.011849 7.512753 19.28425
-1520.413 29.80501 2548.331 -1.637222 -10.43667 -14.67447 1.664776 11.27637 7.116775 -0 41.83048 -0 2.561018 -10.31129 -6.323635 -3.009735 -11.29446 -7.698071 -0 27.24183 -0 -7.34055 -10.15084 19.73157 -1.329531 1.228252 6.309139 -1.290613 7.943187 -2.182004 4.038513 24.15369 2.918705 -0.6350694 -15.14413 8.475951 -1.063777 -18.48102 9.478635 85.72243 16.60379 -7.204387 -0 0 20.03713 -19.81066 8.482235 11.23096 3.172171 -12.56984 -3.124566 -93.08812 27.58116 21.71855 0 0 -6.961572 -5.723364 7.333112 19.50559
-1521.208 30.52814 2554.716 -1.219171 -9.906234 -14.11459 1.091129 8.272481 6.586992 -0 48.00358 -0 2.434949 -6.802122 -6.580609 -3.993696 -8.840983 -8.295286 -0 25.23191 -0 -6.127838 -10.88364 18.97027 -1.897508 1.019223 5.90227 -1.193024 8.314404 -2.733118 3.635675 23.92732 3.491117 -0.3679014 -15.82486 8.544657 -0.2765551 -18.22429 9.660427 86.03395 18.62974 -8.271245 -0 0 18.83988 -20.14529 9.090191 11.56632 2.961817 -13.20532 -3.294512 -91.98737 27.33572 21.10913 0 0 -7.892906 -4.886501 7.357207 19.04894
-1521.885 31.38278 2560.898 -0.8071728 -9.51224 -13.23187 0.7147739 4.17522 5.910071 -0 52.26371 -0 2.129449 -3.705477 -6.907099 -4.795002 -5.814527 -8.634531 -0 23.2745 -0 -4.91123 -11.9013 18.24841 -2.402382 0.942937 5.3507 -1.006541 8.798894 -3.455929 3.160206 23.72993 4.133769 -0.02083647 -16.26195 8.540769 0.602609 -17.83647 9.925179 86.45838 20.80429 -9.747457 -0 0 17.36827 -20.59858 9.954787 11.79639 2.98982 -14.2484 -3.592953 -90.46603 26.77889 19.63699 0 0 -9.459581 -3.740406 7.50178 18.03956
-1522.47 32.15125 2566.829 -0.5036681 -9.275963 -12.15808 0.535345 -0.3515634 5.212867 -0 53.65429 -0 1.697433 -1.858352 -7.276334 -5.316483 -2.462861 -8.807405 -0 21.10675 -0 -3.924837 -13.0589 17.66674 -2.710897 1.000393 4.699723 -0.7485016 9.163516 -4.19603 2.757084 23.63578 4.660578 0.242338 -16.41539 8.529135 1.200868 -17.37674 10.12177 87.0732 22.37113 -11.33696 -0 0 15.90457 -20.84706 10.62604 11.86113 3.242132 -15.3742 -3.938335 -88.8512 26.17025 17.54973 0 0 -11.30146 -2.583443 7.669988 16.77932
